<mxfile host="app.diagrams.net" modified="2023-11-19T19:46:01.085Z" agent="Mozilla/5.0 (Windows NT 10.0; Win64; x64) AppleWebKit/537.36 (KHTML, like Gecko) Chrome/119.0.0.0 Safari/537.36" etag="RUYebLIdLDontwfL1-v5" version="22.1.3" type="github">
  <diagram name="Page-1" id="TY1PTNkmge-2Qu9utx1I">
    <mxGraphModel dx="1562" dy="830" grid="0" gridSize="10" guides="1" tooltips="1" connect="1" arrows="1" fold="1" page="1" pageScale="1" pageWidth="1169" pageHeight="827" background="#000000" math="0" shadow="0">
      <root>
        <mxCell id="0" />
        <mxCell id="1" parent="0" />
        <mxCell id="3F2zEo0LccPGz6dZ9Lyu-45" value="" style="group" vertex="1" connectable="0" parent="1">
          <mxGeometry x="86" y="114" width="997" height="593" as="geometry" />
        </mxCell>
        <mxCell id="3F2zEo0LccPGz6dZ9Lyu-4" value="" style="whiteSpace=wrap;html=1;aspect=fixed;fillColor=none;strokeColor=#FFFFFF;" vertex="1" parent="3F2zEo0LccPGz6dZ9Lyu-45">
          <mxGeometry y="219.26" width="113.49" height="113.49" as="geometry" />
        </mxCell>
        <mxCell id="3F2zEo0LccPGz6dZ9Lyu-25" value="" style="edgeStyle=orthogonalEdgeStyle;rounded=0;orthogonalLoop=1;jettySize=auto;html=1;strokeColor=#FFFFFF;" edge="1" parent="3F2zEo0LccPGz6dZ9Lyu-45">
          <mxGeometry relative="1" as="geometry">
            <mxPoint x="796" y="275.5" as="sourcePoint" />
            <mxPoint x="892" y="276" as="targetPoint" />
          </mxGeometry>
        </mxCell>
        <mxCell id="3F2zEo0LccPGz6dZ9Lyu-23" value="" style="whiteSpace=wrap;html=1;aspect=fixed;fillColor=#000000;strokeColor=#FFFFFF;" vertex="1" parent="3F2zEo0LccPGz6dZ9Lyu-45">
          <mxGeometry x="203" width="593" height="593" as="geometry" />
        </mxCell>
        <mxCell id="3F2zEo0LccPGz6dZ9Lyu-8" value="" style="edgeStyle=orthogonalEdgeStyle;rounded=0;orthogonalLoop=1;jettySize=auto;html=1;fontColor=#FFFFFF;fillColor=#ffe6cc;strokeColor=#FFFFFF;" edge="1" parent="3F2zEo0LccPGz6dZ9Lyu-45">
          <mxGeometry relative="1" as="geometry">
            <mxPoint x="113.50943396226421" y="275.99999999999994" as="sourcePoint" />
            <mxPoint x="203" y="276.49999999999994" as="targetPoint" />
          </mxGeometry>
        </mxCell>
        <mxCell id="3F2zEo0LccPGz6dZ9Lyu-11" value="Label Extraction" style="rounded=0;whiteSpace=wrap;html=1;" vertex="1" parent="3F2zEo0LccPGz6dZ9Lyu-45">
          <mxGeometry x="231.5" y="155" width="120" height="60" as="geometry" />
        </mxCell>
        <mxCell id="3F2zEo0LccPGz6dZ9Lyu-12" value="Image Resizing" style="rounded=0;whiteSpace=wrap;html=1;" vertex="1" parent="3F2zEo0LccPGz6dZ9Lyu-45">
          <mxGeometry x="231.5" y="252" width="120" height="60" as="geometry" />
        </mxCell>
        <mxCell id="3F2zEo0LccPGz6dZ9Lyu-13" value="Image array &lt;br&gt;creation" style="rounded=0;whiteSpace=wrap;html=1;" vertex="1" parent="3F2zEo0LccPGz6dZ9Lyu-45">
          <mxGeometry x="231.5" y="348" width="120" height="60" as="geometry" />
        </mxCell>
        <mxCell id="3F2zEo0LccPGz6dZ9Lyu-14" value="&lt;font style=&quot;font-size: 12px;&quot;&gt;&lt;span style=&quot;background-color: rgb(255, 255, 255);&quot;&gt;&lt;font style=&quot;font-size: 12px;&quot;&gt;Conv2D&lt;/font&gt; &lt;font style=&quot;font-size: 12px;&quot;&gt;(&lt;/font&gt;&lt;span style=&quot;border: 0px solid rgb(217, 217, 227); box-sizing: border-box; --tw-border-spacing-x: 0; --tw-border-spacing-y: 0; --tw-translate-x: 0; --tw-translate-y: 0; --tw-rotate: 0; --tw-skew-x: 0; --tw-skew-y: 0; --tw-scale-x: 1; --tw-scale-y: 1; --tw-pan-x: ; --tw-pan-y: ; --tw-pinch-zoom: ; --tw-scroll-snap-strictness: proximity; --tw-gradient-from-position: ; --tw-gradient-via-position: ; --tw-gradient-to-position: ; --tw-ordinal: ; --tw-slashed-zero: ; --tw-numeric-figure: ; --tw-numeric-spacing: ; --tw-numeric-fraction: ; --tw-ring-inset: ; --tw-ring-offset-width: 0px; --tw-ring-offset-color: #fff; --tw-ring-color: rgba(69,89,164,.5); --tw-ring-offset-shadow: 0 0 transparent; --tw-ring-shadow: 0 0 transparent; --tw-shadow: 0 0 transparent; --tw-shadow-colored: 0 0 transparent; --tw-blur: ; --tw-brightness: ; --tw-contrast: ; --tw-grayscale: ; --tw-hue-rotate: ; --tw-invert: ; --tw-saturate: ; --tw-sepia: ; --tw-drop-shadow: ; --tw-backdrop-blur: ; --tw-backdrop-brightness: ; --tw-backdrop-contrast: ; --tw-backdrop-grayscale: ; --tw-backdrop-hue-rotate: ; --tw-backdrop-invert: ; --tw-backdrop-opacity: ; --tw-backdrop-saturate: ; --tw-backdrop-sepia: ; font-family: &amp;quot;Söhne Mono&amp;quot;, Monaco, &amp;quot;Andale Mono&amp;quot;, &amp;quot;Ubuntu Mono&amp;quot;, monospace; text-align: left;&quot; class=&quot;hljs-number&quot;&gt;32&lt;/span&gt;&lt;span style=&quot;font-family: &amp;quot;Söhne Mono&amp;quot;, Monaco, &amp;quot;Andale Mono&amp;quot;, &amp;quot;Ubuntu Mono&amp;quot;, monospace; text-align: left;&quot;&gt; filters)&lt;br&gt;&amp;nbsp;Activation: ReLU|&lt;br&gt;&amp;nbsp;Kernel: &lt;/span&gt;&lt;span style=&quot;border: 0px solid rgb(217, 217, 227); box-sizing: border-box; --tw-border-spacing-x: 0; --tw-border-spacing-y: 0; --tw-translate-x: 0; --tw-translate-y: 0; --tw-rotate: 0; --tw-skew-x: 0; --tw-skew-y: 0; --tw-scale-x: 1; --tw-scale-y: 1; --tw-pan-x: ; --tw-pan-y: ; --tw-pinch-zoom: ; --tw-scroll-snap-strictness: proximity; --tw-gradient-from-position: ; --tw-gradient-via-position: ; --tw-gradient-to-position: ; --tw-ordinal: ; --tw-slashed-zero: ; --tw-numeric-figure: ; --tw-numeric-spacing: ; --tw-numeric-fraction: ; --tw-ring-inset: ; --tw-ring-offset-width: 0px; --tw-ring-offset-color: #fff; --tw-ring-color: rgba(69,89,164,.5); --tw-ring-offset-shadow: 0 0 transparent; --tw-ring-shadow: 0 0 transparent; --tw-shadow: 0 0 transparent; --tw-shadow-colored: 0 0 transparent; --tw-blur: ; --tw-brightness: ; --tw-contrast: ; --tw-grayscale: ; --tw-hue-rotate: ; --tw-invert: ; --tw-saturate: ; --tw-sepia: ; --tw-drop-shadow: ; --tw-backdrop-blur: ; --tw-backdrop-brightness: ; --tw-backdrop-contrast: ; --tw-backdrop-grayscale: ; --tw-backdrop-hue-rotate: ; --tw-backdrop-invert: ; --tw-backdrop-opacity: ; --tw-backdrop-saturate: ; --tw-backdrop-sepia: ; font-family: &amp;quot;Söhne Mono&amp;quot;, Monaco, &amp;quot;Andale Mono&amp;quot;, &amp;quot;Ubuntu Mono&amp;quot;, monospace; text-align: left;&quot; class=&quot;hljs-number&quot;&gt;3&lt;/span&gt;&lt;/span&gt;&lt;span style=&quot;font-family: &amp;quot;Söhne Mono&amp;quot;, Monaco, &amp;quot;Andale Mono&amp;quot;, &amp;quot;Ubuntu Mono&amp;quot;, monospace; text-align: left;&quot;&gt;&lt;span style=&quot;background-color: rgb(255, 255, 255);&quot;&gt;x3, He init&lt;br&gt;&lt;/span&gt;&lt;br&gt;&lt;/span&gt;&lt;/font&gt;" style="rounded=0;whiteSpace=wrap;html=1;aspect=fixed;direction=west;" vertex="1" parent="3F2zEo0LccPGz6dZ9Lyu-45">
          <mxGeometry x="378.21000000000004" y="62.5" width="180" height="63" as="geometry" />
        </mxCell>
        <mxCell id="3F2zEo0LccPGz6dZ9Lyu-15" value="Feature Extraction and Normalization&lt;br style=&quot;font-size: 18px;&quot;&gt;" style="text;html=1;strokeColor=none;fillColor=none;align=center;verticalAlign=middle;whiteSpace=wrap;rounded=0;fontColor=#FFFFFF;fontSize=18;fontStyle=1" vertex="1" parent="3F2zEo0LccPGz6dZ9Lyu-45">
          <mxGeometry x="212.20999999999998" width="166" height="67" as="geometry" />
        </mxCell>
        <mxCell id="3F2zEo0LccPGz6dZ9Lyu-16" value="Model" style="text;html=1;strokeColor=none;fillColor=none;align=center;verticalAlign=middle;whiteSpace=wrap;rounded=0;fontColor=#FFFFFF;fontSize=18;fontStyle=1" vertex="1" parent="3F2zEo0LccPGz6dZ9Lyu-45">
          <mxGeometry x="441.99" y="13" width="60" height="30" as="geometry" />
        </mxCell>
        <mxCell id="3F2zEo0LccPGz6dZ9Lyu-17" value="MaxPooling2D&lt;br&gt;Pool Size: &lt;span style=&quot;background-color: rgb(255, 255, 255);&quot;&gt;&lt;span style=&quot;border: 0px solid rgb(217, 217, 227); box-sizing: border-box; --tw-border-spacing-x: 0; --tw-border-spacing-y: 0; --tw-translate-x: 0; --tw-translate-y: 0; --tw-rotate: 0; --tw-skew-x: 0; --tw-skew-y: 0; --tw-scale-x: 1; --tw-scale-y: 1; --tw-pan-x: ; --tw-pan-y: ; --tw-pinch-zoom: ; --tw-scroll-snap-strictness: proximity; --tw-gradient-from-position: ; --tw-gradient-via-position: ; --tw-gradient-to-position: ; --tw-ordinal: ; --tw-slashed-zero: ; --tw-numeric-figure: ; --tw-numeric-spacing: ; --tw-numeric-fraction: ; --tw-ring-inset: ; --tw-ring-offset-width: 0px; --tw-ring-offset-color: #fff; --tw-ring-color: rgba(69,89,164,.5); --tw-ring-offset-shadow: 0 0 transparent; --tw-ring-shadow: 0 0 transparent; --tw-shadow: 0 0 transparent; --tw-shadow-colored: 0 0 transparent; --tw-blur: ; --tw-brightness: ; --tw-contrast: ; --tw-grayscale: ; --tw-hue-rotate: ; --tw-invert: ; --tw-saturate: ; --tw-sepia: ; --tw-drop-shadow: ; --tw-backdrop-blur: ; --tw-backdrop-brightness: ; --tw-backdrop-contrast: ; --tw-backdrop-grayscale: ; --tw-backdrop-hue-rotate: ; --tw-backdrop-invert: ; --tw-backdrop-opacity: ; --tw-backdrop-saturate: ; --tw-backdrop-sepia: ; font-family: &amp;quot;Söhne Mono&amp;quot;, Monaco, &amp;quot;Andale Mono&amp;quot;, &amp;quot;Ubuntu Mono&amp;quot;, monospace; font-size: 14px; text-align: left;&quot; class=&quot;hljs-number&quot;&gt;2&lt;/span&gt;&lt;span style=&quot;font-family: &amp;quot;Söhne Mono&amp;quot;, Monaco, &amp;quot;Andale Mono&amp;quot;, &amp;quot;Ubuntu Mono&amp;quot;, monospace; font-size: 14px; text-align: left;&quot;&gt;x2&lt;/span&gt;&lt;/span&gt;" style="rounded=0;whiteSpace=wrap;html=1;aspect=fixed;direction=west;" vertex="1" parent="3F2zEo0LccPGz6dZ9Lyu-45">
          <mxGeometry x="378.21000000000004" y="137.5" width="180" height="63" as="geometry" />
        </mxCell>
        <mxCell id="3F2zEo0LccPGz6dZ9Lyu-18" value="&lt;font style=&quot;font-size: 12px;&quot;&gt;&lt;span style=&quot;background-color: rgb(255, 255, 255);&quot;&gt;&lt;font style=&quot;font-size: 12px;&quot;&gt;Conv2D&lt;/font&gt; &lt;font style=&quot;font-size: 12px;&quot;&gt;(&lt;/font&gt;&lt;span style=&quot;border: 0px solid rgb(217, 217, 227); box-sizing: border-box; --tw-border-spacing-x: 0; --tw-border-spacing-y: 0; --tw-translate-x: 0; --tw-translate-y: 0; --tw-rotate: 0; --tw-skew-x: 0; --tw-skew-y: 0; --tw-scale-x: 1; --tw-scale-y: 1; --tw-pan-x: ; --tw-pan-y: ; --tw-pinch-zoom: ; --tw-scroll-snap-strictness: proximity; --tw-gradient-from-position: ; --tw-gradient-via-position: ; --tw-gradient-to-position: ; --tw-ordinal: ; --tw-slashed-zero: ; --tw-numeric-figure: ; --tw-numeric-spacing: ; --tw-numeric-fraction: ; --tw-ring-inset: ; --tw-ring-offset-width: 0px; --tw-ring-offset-color: #fff; --tw-ring-color: rgba(69,89,164,.5); --tw-ring-offset-shadow: 0 0 transparent; --tw-ring-shadow: 0 0 transparent; --tw-shadow: 0 0 transparent; --tw-shadow-colored: 0 0 transparent; --tw-blur: ; --tw-brightness: ; --tw-contrast: ; --tw-grayscale: ; --tw-hue-rotate: ; --tw-invert: ; --tw-saturate: ; --tw-sepia: ; --tw-drop-shadow: ; --tw-backdrop-blur: ; --tw-backdrop-brightness: ; --tw-backdrop-contrast: ; --tw-backdrop-grayscale: ; --tw-backdrop-hue-rotate: ; --tw-backdrop-invert: ; --tw-backdrop-opacity: ; --tw-backdrop-saturate: ; --tw-backdrop-sepia: ; font-family: &amp;quot;Söhne Mono&amp;quot;, Monaco, &amp;quot;Andale Mono&amp;quot;, &amp;quot;Ubuntu Mono&amp;quot;, monospace; text-align: left;&quot; class=&quot;hljs-number&quot;&gt;32&lt;/span&gt;&lt;span style=&quot;font-family: &amp;quot;Söhne Mono&amp;quot;, Monaco, &amp;quot;Andale Mono&amp;quot;, &amp;quot;Ubuntu Mono&amp;quot;, monospace; text-align: left;&quot;&gt; filters)&lt;br&gt;&amp;nbsp;Activation: ReLU|&lt;br&gt;&amp;nbsp;Kernel: &lt;/span&gt;&lt;span style=&quot;border: 0px solid rgb(217, 217, 227); box-sizing: border-box; --tw-border-spacing-x: 0; --tw-border-spacing-y: 0; --tw-translate-x: 0; --tw-translate-y: 0; --tw-rotate: 0; --tw-skew-x: 0; --tw-skew-y: 0; --tw-scale-x: 1; --tw-scale-y: 1; --tw-pan-x: ; --tw-pan-y: ; --tw-pinch-zoom: ; --tw-scroll-snap-strictness: proximity; --tw-gradient-from-position: ; --tw-gradient-via-position: ; --tw-gradient-to-position: ; --tw-ordinal: ; --tw-slashed-zero: ; --tw-numeric-figure: ; --tw-numeric-spacing: ; --tw-numeric-fraction: ; --tw-ring-inset: ; --tw-ring-offset-width: 0px; --tw-ring-offset-color: #fff; --tw-ring-color: rgba(69,89,164,.5); --tw-ring-offset-shadow: 0 0 transparent; --tw-ring-shadow: 0 0 transparent; --tw-shadow: 0 0 transparent; --tw-shadow-colored: 0 0 transparent; --tw-blur: ; --tw-brightness: ; --tw-contrast: ; --tw-grayscale: ; --tw-hue-rotate: ; --tw-invert: ; --tw-saturate: ; --tw-sepia: ; --tw-drop-shadow: ; --tw-backdrop-blur: ; --tw-backdrop-brightness: ; --tw-backdrop-contrast: ; --tw-backdrop-grayscale: ; --tw-backdrop-hue-rotate: ; --tw-backdrop-invert: ; --tw-backdrop-opacity: ; --tw-backdrop-saturate: ; --tw-backdrop-sepia: ; font-family: &amp;quot;Söhne Mono&amp;quot;, Monaco, &amp;quot;Andale Mono&amp;quot;, &amp;quot;Ubuntu Mono&amp;quot;, monospace; text-align: left;&quot; class=&quot;hljs-number&quot;&gt;3&lt;/span&gt;&lt;/span&gt;&lt;span style=&quot;font-family: &amp;quot;Söhne Mono&amp;quot;, Monaco, &amp;quot;Andale Mono&amp;quot;, &amp;quot;Ubuntu Mono&amp;quot;, monospace; text-align: left;&quot;&gt;&lt;span style=&quot;background-color: rgb(255, 255, 255);&quot;&gt;x3, He init&lt;br&gt;&lt;/span&gt;&lt;br&gt;&lt;/span&gt;&lt;/font&gt;" style="rounded=0;whiteSpace=wrap;html=1;aspect=fixed;direction=west;" vertex="1" parent="3F2zEo0LccPGz6dZ9Lyu-45">
          <mxGeometry x="378.21000000000004" y="211.5" width="180" height="63" as="geometry" />
        </mxCell>
        <mxCell id="3F2zEo0LccPGz6dZ9Lyu-19" value="Flatten" style="rounded=0;whiteSpace=wrap;html=1;aspect=fixed;direction=west;" vertex="1" parent="3F2zEo0LccPGz6dZ9Lyu-45">
          <mxGeometry x="378.21000000000004" y="360.5" width="180" height="63" as="geometry" />
        </mxCell>
        <mxCell id="3F2zEo0LccPGz6dZ9Lyu-20" value="MaxPooling2D&lt;br&gt;Pool Size: &lt;span style=&quot;background-color: rgb(255, 255, 255);&quot;&gt;&lt;span style=&quot;border: 0px solid rgb(217, 217, 227); box-sizing: border-box; --tw-border-spacing-x: 0; --tw-border-spacing-y: 0; --tw-translate-x: 0; --tw-translate-y: 0; --tw-rotate: 0; --tw-skew-x: 0; --tw-skew-y: 0; --tw-scale-x: 1; --tw-scale-y: 1; --tw-pan-x: ; --tw-pan-y: ; --tw-pinch-zoom: ; --tw-scroll-snap-strictness: proximity; --tw-gradient-from-position: ; --tw-gradient-via-position: ; --tw-gradient-to-position: ; --tw-ordinal: ; --tw-slashed-zero: ; --tw-numeric-figure: ; --tw-numeric-spacing: ; --tw-numeric-fraction: ; --tw-ring-inset: ; --tw-ring-offset-width: 0px; --tw-ring-offset-color: #fff; --tw-ring-color: rgba(69,89,164,.5); --tw-ring-offset-shadow: 0 0 transparent; --tw-ring-shadow: 0 0 transparent; --tw-shadow: 0 0 transparent; --tw-shadow-colored: 0 0 transparent; --tw-blur: ; --tw-brightness: ; --tw-contrast: ; --tw-grayscale: ; --tw-hue-rotate: ; --tw-invert: ; --tw-saturate: ; --tw-sepia: ; --tw-drop-shadow: ; --tw-backdrop-blur: ; --tw-backdrop-brightness: ; --tw-backdrop-contrast: ; --tw-backdrop-grayscale: ; --tw-backdrop-hue-rotate: ; --tw-backdrop-invert: ; --tw-backdrop-opacity: ; --tw-backdrop-saturate: ; --tw-backdrop-sepia: ; font-family: &amp;quot;Söhne Mono&amp;quot;, Monaco, &amp;quot;Andale Mono&amp;quot;, &amp;quot;Ubuntu Mono&amp;quot;, monospace; font-size: 14px; text-align: left;&quot; class=&quot;hljs-number&quot;&gt;2&lt;/span&gt;&lt;span style=&quot;font-family: &amp;quot;Söhne Mono&amp;quot;, Monaco, &amp;quot;Andale Mono&amp;quot;, &amp;quot;Ubuntu Mono&amp;quot;, monospace; font-size: 14px; text-align: left;&quot;&gt;x2&lt;/span&gt;&lt;/span&gt;" style="rounded=0;whiteSpace=wrap;html=1;aspect=fixed;direction=west;" vertex="1" parent="3F2zEo0LccPGz6dZ9Lyu-45">
          <mxGeometry x="378.21000000000004" y="286.5" width="180" height="63" as="geometry" />
        </mxCell>
        <mxCell id="3F2zEo0LccPGz6dZ9Lyu-21" value="&lt;span style=&quot;background-color: rgb(255, 255, 255);&quot;&gt;Dense (&lt;span style=&quot;border: 0px solid rgb(217, 217, 227); box-sizing: border-box; --tw-border-spacing-x: 0; --tw-border-spacing-y: 0; --tw-translate-x: 0; --tw-translate-y: 0; --tw-rotate: 0; --tw-skew-x: 0; --tw-skew-y: 0; --tw-scale-x: 1; --tw-scale-y: 1; --tw-pan-x: ; --tw-pan-y: ; --tw-pinch-zoom: ; --tw-scroll-snap-strictness: proximity; --tw-gradient-from-position: ; --tw-gradient-via-position: ; --tw-gradient-to-position: ; --tw-ordinal: ; --tw-slashed-zero: ; --tw-numeric-figure: ; --tw-numeric-spacing: ; --tw-numeric-fraction: ; --tw-ring-inset: ; --tw-ring-offset-width: 0px; --tw-ring-offset-color: #fff; --tw-ring-color: rgba(69,89,164,.5); --tw-ring-offset-shadow: 0 0 transparent; --tw-ring-shadow: 0 0 transparent; --tw-shadow: 0 0 transparent; --tw-shadow-colored: 0 0 transparent; --tw-blur: ; --tw-brightness: ; --tw-contrast: ; --tw-grayscale: ; --tw-hue-rotate: ; --tw-invert: ; --tw-saturate: ; --tw-sepia: ; --tw-drop-shadow: ; --tw-backdrop-blur: ; --tw-backdrop-brightness: ; --tw-backdrop-contrast: ; --tw-backdrop-grayscale: ; --tw-backdrop-hue-rotate: ; --tw-backdrop-invert: ; --tw-backdrop-opacity: ; --tw-backdrop-saturate: ; --tw-backdrop-sepia: ; font-family: &amp;quot;Söhne Mono&amp;quot;, Monaco, &amp;quot;Andale Mono&amp;quot;, &amp;quot;Ubuntu Mono&amp;quot;, monospace; font-size: 14px; text-align: left;&quot; class=&quot;hljs-number&quot;&gt;128&lt;/span&gt; units)&lt;br&gt;&lt;span style=&quot;font-family: &amp;quot;Söhne Mono&amp;quot;, Monaco, &amp;quot;Andale Mono&amp;quot;, &amp;quot;Ubuntu Mono&amp;quot;, monospace; font-size: 14px; text-align: left;&quot;&gt;Activation: ReLU&lt;br&gt;&lt;/span&gt;Kernel: He init&lt;/span&gt;&lt;span style=&quot;color: rgb(255, 255, 255); font-family: &amp;quot;Söhne Mono&amp;quot;, Monaco, &amp;quot;Andale Mono&amp;quot;, &amp;quot;Ubuntu Mono&amp;quot;, monospace; font-size: 14px; text-align: left; background-color: rgb(0, 0, 0);&quot;&gt;&lt;br&gt;&lt;/span&gt;" style="rounded=0;whiteSpace=wrap;html=1;aspect=fixed;direction=west;" vertex="1" parent="3F2zEo0LccPGz6dZ9Lyu-45">
          <mxGeometry x="378.21000000000004" y="435.5" width="180" height="63" as="geometry" />
        </mxCell>
        <mxCell id="3F2zEo0LccPGz6dZ9Lyu-22" value="Dense (&lt;span style=&quot;border: 0px solid rgb(217, 217, 227); box-sizing: border-box; --tw-border-spacing-x: 0; --tw-border-spacing-y: 0; --tw-translate-x: 0; --tw-translate-y: 0; --tw-rotate: 0; --tw-skew-x: 0; --tw-skew-y: 0; --tw-scale-x: 1; --tw-scale-y: 1; --tw-pan-x: ; --tw-pan-y: ; --tw-pinch-zoom: ; --tw-scroll-snap-strictness: proximity; --tw-gradient-from-position: ; --tw-gradient-via-position: ; --tw-gradient-to-position: ; --tw-ordinal: ; --tw-slashed-zero: ; --tw-numeric-figure: ; --tw-numeric-spacing: ; --tw-numeric-fraction: ; --tw-ring-inset: ; --tw-ring-offset-width: 0px; --tw-ring-offset-color: #fff; --tw-ring-color: rgba(69,89,164,.5); --tw-ring-offset-shadow: 0 0 transparent; --tw-ring-shadow: 0 0 transparent; --tw-shadow: 0 0 transparent; --tw-shadow-colored: 0 0 transparent; --tw-blur: ; --tw-brightness: ; --tw-contrast: ; --tw-grayscale: ; --tw-hue-rotate: ; --tw-invert: ; --tw-saturate: ; --tw-sepia: ; --tw-drop-shadow: ; --tw-backdrop-blur: ; --tw-backdrop-brightness: ; --tw-backdrop-contrast: ; --tw-backdrop-grayscale: ; --tw-backdrop-hue-rotate: ; --tw-backdrop-invert: ; --tw-backdrop-opacity: ; --tw-backdrop-saturate: ; --tw-backdrop-sepia: ; font-family: &amp;quot;Söhne Mono&amp;quot;, Monaco, &amp;quot;Andale Mono&amp;quot;, &amp;quot;Ubuntu Mono&amp;quot;, monospace; font-size: 14px; text-align: left;&quot; class=&quot;hljs-number&quot;&gt;1&lt;/span&gt; unit)&lt;br&gt;&lt;span style=&quot;font-family: &amp;quot;Söhne Mono&amp;quot;, Monaco, &amp;quot;Andale Mono&amp;quot;, &amp;quot;Ubuntu Mono&amp;quot;, monospace; font-size: 14px; text-align: left;&quot;&gt;Activation: Sigmoid&lt;/span&gt;&lt;span style=&quot;color: rgb(255, 255, 255); font-family: &amp;quot;Söhne Mono&amp;quot;, Monaco, &amp;quot;Andale Mono&amp;quot;, &amp;quot;Ubuntu Mono&amp;quot;, monospace; font-size: 14px; text-align: left; background-color: rgb(0, 0, 0);&quot;&gt;&lt;br&gt;&lt;/span&gt;" style="rounded=0;whiteSpace=wrap;html=1;aspect=fixed;direction=west;" vertex="1" parent="3F2zEo0LccPGz6dZ9Lyu-45">
          <mxGeometry x="378.21000000000004" y="509.5" width="180" height="63" as="geometry" />
        </mxCell>
        <mxCell id="3F2zEo0LccPGz6dZ9Lyu-29" value="INPUT" style="text;html=1;strokeColor=none;fillColor=none;align=center;verticalAlign=middle;whiteSpace=wrap;rounded=0;fontColor=#FFFFFF;fontSize=15;fontStyle=1" vertex="1" parent="3F2zEo0LccPGz6dZ9Lyu-45">
          <mxGeometry x="128" y="237.5" width="60" height="30" as="geometry" />
        </mxCell>
        <mxCell id="3F2zEo0LccPGz6dZ9Lyu-30" value="OUTPUT" style="text;html=1;strokeColor=none;fillColor=none;align=center;verticalAlign=middle;whiteSpace=wrap;rounded=0;fontColor=#FFFFFF;fontSize=15;fontStyle=1" vertex="1" parent="3F2zEo0LccPGz6dZ9Lyu-45">
          <mxGeometry x="818" y="240.25" width="54" height="24.5" as="geometry" />
        </mxCell>
        <mxCell id="3F2zEo0LccPGz6dZ9Lyu-37" value="Training" style="rounded=0;whiteSpace=wrap;html=1;" vertex="1" parent="3F2zEo0LccPGz6dZ9Lyu-45">
          <mxGeometry x="576" y="211.5" width="100" height="60" as="geometry" />
        </mxCell>
        <mxCell id="3F2zEo0LccPGz6dZ9Lyu-38" value="Evaluation" style="rounded=0;whiteSpace=wrap;html=1;" vertex="1" parent="3F2zEo0LccPGz6dZ9Lyu-45">
          <mxGeometry x="576" y="286.5" width="100" height="60" as="geometry" />
        </mxCell>
        <mxCell id="3F2zEo0LccPGz6dZ9Lyu-39" value="Prediction" style="rounded=0;whiteSpace=wrap;html=1;" vertex="1" parent="3F2zEo0LccPGz6dZ9Lyu-45">
          <mxGeometry x="686" y="246" width="100" height="60" as="geometry" />
        </mxCell>
        <mxCell id="3F2zEo0LccPGz6dZ9Lyu-40" value="Training and Evaluation" style="text;html=1;strokeColor=none;fillColor=none;align=center;verticalAlign=middle;whiteSpace=wrap;rounded=0;fontColor=#FFFFFF;fontSize=18;fontStyle=1" vertex="1" parent="3F2zEo0LccPGz6dZ9Lyu-45">
          <mxGeometry x="566.78" y="16" width="226" height="30" as="geometry" />
        </mxCell>
        <mxCell id="3F2zEo0LccPGz6dZ9Lyu-43" value="" style="group" vertex="1" connectable="0" parent="3F2zEo0LccPGz6dZ9Lyu-45">
          <mxGeometry x="893" y="222" width="104" height="108" as="geometry" />
        </mxCell>
        <mxCell id="3F2zEo0LccPGz6dZ9Lyu-33" value="" style="whiteSpace=wrap;html=1;aspect=fixed;fillColor=#000000;strokeColor=#FFFFFF;container=0;" vertex="1" parent="3F2zEo0LccPGz6dZ9Lyu-43">
          <mxGeometry width="103.99999999999999" height="103.99999999999999" as="geometry" />
        </mxCell>
        <mxCell id="3F2zEo0LccPGz6dZ9Lyu-9" value="&lt;b&gt;Classified Gender&lt;/b&gt;" style="text;html=1;align=center;verticalAlign=middle;whiteSpace=wrap;rounded=0;fontColor=#FFFFFF;fontSize=16;container=0;" vertex="1" parent="3F2zEo0LccPGz6dZ9Lyu-43">
          <mxGeometry x="19.644444444444442" y="10.799999999999999" width="69.33333333333333" height="36" as="geometry" />
        </mxCell>
        <mxCell id="3F2zEo0LccPGz6dZ9Lyu-26" value="" style="shape=image;html=1;verticalAlign=top;verticalLabelPosition=bottom;labelBackgroundColor=#ffffff;imageAspect=0;aspect=fixed;image=https://cdn1.iconfinder.com/data/icons/bootstrap-vol-3/16/gender-male-128.png;imageBackground=#007FFF;imageBorder=#007FFF;container=0;" vertex="1" parent="3F2zEo0LccPGz6dZ9Lyu-43">
          <mxGeometry x="56.62222222222222" y="54" width="40.44444444444444" height="40.44444444444444" as="geometry" />
        </mxCell>
        <mxCell id="3F2zEo0LccPGz6dZ9Lyu-27" value="" style="shape=image;html=1;verticalAlign=top;verticalLabelPosition=bottom;labelBackgroundColor=#ffffff;imageAspect=0;aspect=fixed;image=https://cdn1.iconfinder.com/data/icons/bootstrap-vol-3/16/gender-female-128.png;fontColor=#FF0000;imageBorder=#FF0000;imageBackground=#FF0000;container=0;" vertex="1" parent="3F2zEo0LccPGz6dZ9Lyu-43">
          <mxGeometry x="11.555555555555554" y="54" width="39.86666666666666" height="39.86666666666666" as="geometry" />
        </mxCell>
        <mxCell id="3F2zEo0LccPGz6dZ9Lyu-3" value="" style="shape=image;html=1;verticalAlign=top;verticalLabelPosition=bottom;labelBackgroundColor=#ffffff;imageAspect=0;aspect=fixed;image=https://cdn1.iconfinder.com/data/icons/bootstrap-vol-3/16/fingerprint-128.png" vertex="1" parent="3F2zEo0LccPGz6dZ9Lyu-45">
          <mxGeometry x="16.620000000000005" y="219.51" width="80.25544267053701" height="80.25544267053701" as="geometry" />
        </mxCell>
        <mxCell id="3F2zEo0LccPGz6dZ9Lyu-44" value="Fingerprint Image" style="text;html=1;strokeColor=none;fillColor=none;align=center;verticalAlign=middle;whiteSpace=wrap;rounded=0;fontColor=#FFFFFF;fontStyle=1;fontSize=13;" vertex="1" parent="3F2zEo0LccPGz6dZ9Lyu-45">
          <mxGeometry x="26.74000000000001" y="297" width="60" height="30" as="geometry" />
        </mxCell>
      </root>
    </mxGraphModel>
  </diagram>
</mxfile>
